<svg width="100" height="36" viewBox="0 0 100 36" fill="none" xmlns="http://www.w3.org/2000/svg">
<path d="M29.2139 15.8457C29.3986 17.3943 28.7927 19.2883 27.4287 21.2354C25.8526 23.4849 23.3511 25.6745 20.2949 27.2383C17.2346 28.8041 14.2675 29.4113 11.9639 29.1846C9.66032 28.9577 8.15052 27.9288 7.6416 26.3281C7.2823 25.1977 7.42534 23.8173 8.05957 22.3291C8.92971 24.0601 10.7663 24.9823 12.9219 25.1855C15.3506 25.4145 18.3208 24.7637 21.2812 23.249C24.8737 21.4109 27.7679 18.6457 29.2139 15.8457ZM23.6768 12.1943C22.626 14.4507 20.2062 16.9018 16.9873 18.5488C14.0542 20.0495 11.2894 20.4591 9.39062 20.0215C10.9708 17.8329 13.4207 15.7117 16.4033 14.1855C19.0132 12.8502 21.5558 12.2125 23.6768 12.1943ZM20.0859 6.75C20.8903 6.75393 21.5872 6.87056 22.167 7.07715C20.3703 7.32153 18.42 7.94214 16.4727 8.93848C13.7997 10.3061 11.5375 12.1724 9.95898 14.168C8.70072 15.7587 7.83843 17.4838 7.60254 19.1387C7.27103 18.8271 7.03305 18.4505 6.89355 18.0117C6.49365 16.7539 6.9298 15.0353 8.22852 13.2129C9.50785 11.4178 11.5371 9.65788 14.0156 8.38965C16.2116 7.26605 18.3431 6.74158 20.0859 6.75ZM25.5859 8.63477C27.1525 8.98114 28.1706 9.8213 28.5479 11.0078C28.6583 11.3553 28.7136 11.7305 28.7158 12.1299C27.8764 11.4856 26.8316 11.0669 25.6699 10.8564C25.7979 10.0984 25.7824 9.34691 25.5859 8.63477Z" fill="#18181B" stroke="#18181B" stroke-width="1.5"/>
<path d="M57.679 15.1847H55.4631C55.3778 14.7112 55.2192 14.2945 54.9872 13.9347C54.7552 13.5748 54.4711 13.2694 54.1349 13.0185C53.7988 12.7675 53.4223 12.5781 53.0057 12.4503C52.5938 12.3224 52.1558 12.2585 51.6918 12.2585C50.8537 12.2585 50.1032 12.4692 49.4403 12.8906C48.7822 13.312 48.2614 13.9299 47.8778 14.7443C47.4991 15.5587 47.3097 16.553 47.3097 17.7273C47.3097 18.911 47.4991 19.91 47.8778 20.7244C48.2614 21.5388 48.7846 22.1544 49.4474 22.571C50.1103 22.9877 50.8561 23.196 51.6847 23.196C52.1439 23.196 52.5795 23.1345 52.9915 23.0114C53.4081 22.8835 53.7846 22.6965 54.1207 22.4503C54.4569 22.2041 54.741 21.9034 54.973 21.5483C55.2098 21.1884 55.3731 20.7765 55.4631 20.3125L57.679 20.3196C57.5606 21.0346 57.331 21.6927 56.9901 22.294C56.6539 22.8906 56.2206 23.4067 55.6903 23.8423C55.1648 24.2732 54.5634 24.607 53.8864 24.8438C53.2093 25.0805 52.4706 25.1989 51.6705 25.1989C50.411 25.1989 49.2888 24.9006 48.304 24.304C47.3191 23.7027 46.5426 22.8433 45.9744 21.7259C45.411 20.6084 45.1293 19.2756 45.1293 17.7273C45.1293 16.1742 45.4134 14.8414 45.9815 13.7287C46.5497 12.6113 47.3262 11.7543 48.3111 11.1577C49.2959 10.5563 50.4157 10.2557 51.6705 10.2557C52.4422 10.2557 53.1619 10.367 53.8295 10.5895C54.5019 10.8073 55.1056 11.1293 55.6406 11.5554C56.1757 11.9768 56.6184 12.4929 56.9688 13.1037C57.3191 13.7098 57.5559 14.4034 57.679 15.1847ZM60.305 25V10.4545H62.4996V16.7756H69.7511V10.4545H71.9528V25H69.7511V18.6577H62.4996V25H60.305ZM75.1488 25V10.4545H84.2681V12.3438H77.3434V16.7756H83.7923V18.6577H77.3434V23.1108H84.3533V25H75.1488ZM88.7266 10.4545L92.2067 16.1435H92.3203L95.8004 10.4545H98.343L93.8118 17.7273L98.3714 25H95.8146L92.3203 19.3892H92.2067L88.7124 25H86.1555L90.7933 17.7273L86.1839 10.4545H88.7266Z" fill="#18181B"/>
</svg>
